<svg display="none" xmlns="http://www.w3.org/2000/svg">
    <!--svg gorshok-->
    <symbol id="svg-ingoorplant" viewBox="0 0 64 98">
        <g>
            <path d="M18.1675 12.9343L18.521 12.5808C18.6703 12.73 18.7887 12.9072 18.8695 13.1023C18.9502 13.2973 18.9918 13.5063 18.9918 13.7174C18.9918 13.9285 18.9502 14.1376 18.8695 14.3326C18.7887 14.5276 18.6703 14.7048 18.521 14.8541C18.3717 15.0033 18.1945 15.1217 17.9995 15.2025C17.8045 15.2833 17.5954 15.3249 17.3843 15.3249C17.1732 15.3249 16.9642 15.2833 16.7692 15.2025C16.5742 15.1217 16.397 15.0033 16.2477 14.8541L16.2477 14.8541M18.1675 12.9343L16.6012 14.5005L16.2477 14.8541M18.1675 12.9343L18.521 12.5808L16.0069 10.0667L16.0069 10.0667M18.1675 12.9343L16.0069 10.0667M16.2477 14.8541L13.7336 12.34M16.2477 14.8541L13.7336 12.34M13.7336 12.34C13.7336 12.34 13.7336 12.34 13.7336 12.34M13.7336 12.34L13.7336 12.34M16.0069 10.0667C15.7055 9.76524 15.2966 9.59588 14.8703 9.59589C14.4439 9.59589 14.0351 9.76525 13.7336 10.0667L14.0872 10.4203M16.0069 10.0667L14.0872 10.4203M14.0872 10.4203L13.7336 10.0667C13.4322 10.3682 13.2628 10.777 13.2628 11.2034M14.0872 10.4203L13.2628 11.2034M13.2628 11.2034C13.2628 11.6297 13.4322 12.0386 13.7336 12.34M13.2628 11.2034L13.7336 12.34" fill="#285A43" stroke="#285A43"/>
            <path d="M44.9349 12.5809L44.9349 12.5809L46.0715 14.8248L46.0709 15.3248C46.071 15.3248 46.0712 15.3248 46.0714 15.3248C46.2826 15.325 46.4917 15.2835 46.6868 15.2027C46.8819 15.1219 47.0591 15.0033 47.2083 14.8539C47.2083 14.8539 47.2083 14.8538 47.2084 14.8538C47.2085 14.8537 47.2086 14.8536 47.2087 14.8535L49.7205 12.3412C49.871 12.1927 49.9907 12.0159 50.0728 11.821C50.1552 11.6255 50.1981 11.4156 50.1989 11.2034C50.1998 10.9912 50.1586 10.781 50.0778 10.5847C49.997 10.3885 49.8781 10.2103 49.728 10.0603C49.578 9.91023 49.3997 9.7914 49.2035 9.71061C49.0073 9.62982 48.797 9.58867 48.5849 9.58955C48.3727 9.59043 48.1627 9.63331 47.9672 9.71573C47.7724 9.79785 47.5956 9.91761 47.4472 10.0681L44.9349 12.5809Z" fill="#285A43" stroke="#285A43"/>
            <path d="M52.0128 29.6683H57.323C57.7494 29.6683 58.1582 29.499 58.4597 29.1975C58.7611 28.8961 58.9305 28.4872 58.9305 28.0609C58.9305 27.6346 58.7611 27.2257 58.4597 26.9243L58.1061 27.2778L58.4597 26.9243C58.1582 26.6228 57.7494 26.4535 57.323 26.4535H52.0128C51.5865 26.4535 51.1776 26.6228 50.8762 26.9243C50.5747 27.2257 50.4054 27.6346 50.4054 28.0609C50.4054 28.4872 50.5747 28.8961 50.8762 29.1975C51.1776 29.499 51.5865 29.6683 52.0128 29.6683Z" fill="#285A43" stroke="#285A43"/>
            <path d="M6.13277 29.6683H11.443C11.8693 29.6683 12.2782 29.499 12.5796 29.1975C12.8811 28.8961 13.0504 28.4872 13.0504 28.0609C13.0504 27.6346 12.8811 27.2257 12.5796 26.9243L12.2261 27.2778L12.5796 26.9243C12.2782 26.6228 11.8693 26.4535 11.443 26.4535H6.13277C5.70645 26.4535 5.2976 26.6228 4.99615 26.9243C4.6947 27.2257 4.52534 27.6346 4.52534 28.0609C4.52534 28.4872 4.6947 28.8961 4.99615 29.1975C5.2976 29.499 5.70645 29.6683 6.13277 29.6683Z" fill="#285A43" stroke="#285A43"/>
            <path d="M31.7278 9.38348C32.1542 9.38348 32.563 9.21412 32.8645 8.91267C33.1659 8.61123 33.3353 8.20237 33.3353 7.77606V2.46582C33.3353 2.0395 33.1659 1.63065 32.8645 1.3292C32.563 1.02775 32.1542 0.858398 31.7278 0.858398C31.3015 0.858398 30.8927 1.02775 30.5912 1.3292L30.9448 1.68275L30.5912 1.3292C30.2898 1.63065 30.1204 2.0395 30.1204 2.46582V7.77606C30.1204 8.20237 30.2898 8.61123 30.5912 8.91267C30.8927 9.21412 31.3015 9.38348 31.7278 9.38348Z" fill="#285A43" stroke="#285A43"/>
            <path d="M17.4003 36.7143L1.1481 48.8026C0.946982 48.9522 0.78364 49.1467 0.671111 49.3707C0.558576 49.5946 0.499977 49.8418 0.499985 50.0924V95.5342C0.499985 95.9605 0.669334 96.3693 0.97078 96.6708L0.970787 96.6708C1.27224 96.9722 1.68109 97.1416 2.10741 97.1416H61.3483C61.7746 97.1416 62.1834 96.9722 62.4849 96.6708C62.7863 96.3693 62.9557 95.9605 62.9557 95.5342V50.0924C62.9557 49.8418 62.8971 49.5946 62.7845 49.3707C62.672 49.1467 62.5087 48.9522 62.3076 48.8026L46.0554 36.7143C47.5289 34.2785 48.3585 31.5047 48.4619 28.6545C48.571 25.6484 47.8684 22.6685 46.4278 20.0278C44.9872 17.3871 42.8618 15.1832 40.2751 13.6478C37.6885 12.1124 34.7359 11.3021 31.7278 11.3021C28.7198 11.3021 25.7672 12.1124 23.1805 13.6478C20.5938 15.1832 18.4685 17.3871 17.0279 20.0278C15.5873 22.6685 14.8847 25.6484 14.9938 28.6545C15.0972 31.5047 15.9268 34.2785 17.4003 36.7143ZM19.9914 34.787C18.8151 32.7442 18.1947 30.425 18.1975 28.0615V28.0606C18.1963 25.9635 18.6825 23.8949 19.6178 22.018C20.5532 20.1411 21.912 18.5072 23.587 17.2455C25.262 15.9838 27.2073 15.1286 29.2695 14.7476C31.3317 14.3666 33.4541 14.4702 35.4694 15.0501C37.4847 15.63 39.3376 16.6704 40.8818 18.0892C42.4261 19.508 43.6194 21.2664 44.3675 23.2254C45.1157 25.1845 45.3983 27.2906 45.1929 29.3776C45.0053 31.2846 44.4149 33.1279 43.4633 34.7864L32.687 26.7711L32.687 26.7711C32.4097 26.5648 32.0733 26.4534 31.7277 26.4534C31.3822 26.4534 31.0458 26.5648 30.7685 26.7711L30.7685 26.7711L19.9914 34.787ZM59.7407 93.9268H3.71485V50.9001L31.7278 30.0642L59.7408 50.9001L59.7407 93.9268Z" fill="#285A43" stroke="#285A43"/>
            <path d="M18.7333 57.2183H18.7328H17.7405C17.3142 57.2183 16.9053 57.3877 16.6039 57.6891C16.3024 57.9906 16.1331 58.3994 16.1331 58.8257L16.1331 59.8181L16.1331 59.8186C16.1377 63.669 17.6614 67.3621 20.3731 70.0956C22.9683 72.7116 26.451 74.2465 30.1204 74.4046V81.5451C25.4828 81.8148 20.9895 83.2734 17.0745 85.7841L17.0742 85.7843C16.7155 86.0147 16.4631 86.3782 16.3724 86.7947C16.2817 87.2113 16.3601 87.6468 16.5906 88.0055C16.821 88.3642 17.1844 88.6167 17.601 88.7074C18.0173 88.798 18.4525 88.7197 18.8111 88.4896C22.6671 86.0213 27.1496 84.7095 31.7279 84.7095C36.3053 84.7095 40.7869 86.0208 44.6424 88.4881C44.8193 88.6038 45.0174 88.6835 45.2251 88.7226C45.434 88.7619 45.6485 88.7594 45.8563 88.7152C46.0642 88.6711 46.2612 88.5861 46.436 88.4653C46.6108 88.3446 46.76 88.1903 46.8748 88.0115C46.9896 87.8327 47.0679 87.633 47.105 87.4238C47.1421 87.2145 47.1374 87 47.0911 86.7927C47.0448 86.5853 46.9578 86.3892 46.8353 86.2156C46.7132 86.0427 46.5582 85.8957 46.3791 85.7829C42.4647 83.2728 37.9721 81.8147 33.3353 81.5451V74.4046C37.0046 74.2465 40.4873 72.7115 43.0825 70.0955C45.7942 67.362 47.3179 63.669 47.3225 59.8186V59.8181V58.8257C47.3225 58.3994 47.1531 57.9906 46.8517 57.6891C46.5502 57.3877 46.1414 57.2183 45.715 57.2183L44.7227 57.2183L44.7222 57.2183C41.8504 57.2213 39.0431 58.0697 36.6504 59.6578C34.5606 61.0448 32.8679 62.9424 31.7278 65.1629C30.5878 62.9424 28.895 61.0448 26.8053 59.6578C24.4125 58.0697 21.6051 57.2213 18.7333 57.2183ZM22.6869 67.8666C20.7027 65.8824 19.5243 63.2409 19.3661 60.4514C22.1556 60.6096 24.7971 61.7879 26.7814 63.7721C28.7656 65.7564 29.9439 68.3979 30.1022 71.1874C27.3127 71.0292 24.6711 69.8509 22.6869 67.8666ZM36.6742 63.7721C38.6585 61.7879 41.3 60.6096 44.0895 60.4514C43.9312 63.2409 42.7529 65.8824 40.7686 67.8666C38.7844 69.8509 36.1428 71.0292 33.3533 71.1874C33.5116 68.3979 34.6899 65.7564 36.6742 63.7721Z" fill="#285A43" stroke="#285A43"/>

        </g>
    </symbol>
    <!--svg bamboo-->
    <symbol id="svg-bamboo" viewBox="0 0 76 98">
        <g>
        <mask id="path-1-outside-1_301_1621" maskUnits="userSpaceOnUse" x="0.753906" y="0.832825" width="75" height="97" fill="black">
        <rect fill="white" x="0.753906" y="0.832825" width="75" height="97"/>
        <path d="M74.1077 30.3775C74.0366 30.249 73.9407 30.136 73.8256 30.0449C73.7104 29.9538 73.5783 29.8866 73.4369 29.8471C70.2445 28.9541 66.4971 29.5021 63.1556 31.3508C61.1479 32.4428 59.4152 33.9777 58.0891 35.8391L58.0625 35.7192C57.0481 31.142 57.0481 29.4128 58.0625 24.8357L58.8228 21.4046C58.8587 21.2428 58.8577 21.0749 58.8201 20.9135C58.7824 20.752 58.709 20.6011 58.6052 20.4718C58.5015 20.3425 58.37 20.2382 58.2205 20.1665C58.071 20.0948 57.9074 20.0576 57.7416 20.0576H43.9603C43.7945 20.0576 43.6309 20.0948 43.4814 20.1665C43.3319 20.2382 43.2004 20.3425 43.0967 20.4718C42.9929 20.6011 42.9195 20.752 42.8818 20.9135C42.8442 21.0749 42.8432 21.2428 42.8791 21.4046L43.6394 24.8357C44.6536 29.4128 44.6536 31.142 43.6394 35.7192L42.8791 39.1502C42.8751 39.1681 42.8734 39.1862 42.8703 39.2043C42.8668 39.2249 42.8625 39.2454 42.8602 39.2662C42.8579 39.2871 42.8575 39.3075 42.8563 39.3281C42.8552 39.3488 42.8533 39.3692 42.8533 39.3899C42.8533 39.4105 42.8552 39.431 42.8563 39.4516C42.8575 39.4721 42.8579 39.4928 42.8602 39.5135C42.8625 39.5341 42.8668 39.5548 42.8703 39.5754C42.8734 39.5934 42.8752 39.6115 42.8791 39.6296L43.6394 43.0606C44.6538 47.6377 44.6538 49.3668 43.6394 53.944L43.0714 56.5071H33.19L32.622 53.944C31.6075 49.3668 31.6075 47.6377 32.622 43.0606L33.3823 39.6296C33.3862 39.6116 33.388 39.5935 33.391 39.5754C33.3946 39.5548 33.3988 39.5343 33.4012 39.5135C33.4035 39.4927 33.4039 39.4722 33.405 39.4516C33.4062 39.4309 33.4081 39.4105 33.4081 39.3899C33.4081 39.3692 33.4062 39.3487 33.405 39.3281C33.4039 39.3075 33.4035 39.2869 33.4012 39.2662C33.3988 39.2456 33.3946 39.2249 33.391 39.2043C33.388 39.1863 33.3861 39.1682 33.3823 39.1502L32.622 35.7192C31.6076 31.142 31.6076 29.4128 32.622 24.8357L33.3823 21.4046C33.3862 21.3867 33.388 21.3686 33.391 21.3505C33.3946 21.3299 33.3988 21.3094 33.4012 21.2886C33.4035 21.2678 33.4039 21.2473 33.405 21.2267C33.4062 21.206 33.4081 21.1856 33.4081 21.165C33.4081 21.1443 33.4062 21.1238 33.405 21.1032C33.4039 21.0827 33.4035 21.062 33.4012 21.0413C33.3988 21.0207 33.3946 21 33.391 20.9794C33.388 20.9614 33.3861 20.9433 33.3823 20.9253L32.622 17.4943C31.6075 12.9171 31.6075 11.188 32.622 6.61086L33.3823 3.17984C33.4181 3.01799 33.4172 2.85015 33.3795 2.6887C33.3419 2.52725 33.2685 2.37631 33.1647 2.24703C33.0609 2.11775 32.9294 2.01341 32.78 1.94172C32.6305 1.87003 32.4668 1.83282 32.301 1.83282H18.5198C18.354 1.83282 18.1903 1.87004 18.0408 1.94173C17.8914 2.01342 17.7599 2.11776 17.6561 2.24704C17.5524 2.37632 17.4789 2.52726 17.4413 2.6887C17.4036 2.85015 17.4027 3.01799 17.4386 3.17984L18.1988 6.61086C19.2132 11.188 19.2132 12.9171 18.1988 17.4943L18.1564 17.6859C16.8089 15.6569 14.9851 13.9887 12.8443 12.827C9.50294 10.9784 5.7554 10.4306 2.56305 11.3235C2.42165 11.363 2.28953 11.4303 2.17437 11.5213C2.05921 11.6124 1.96331 11.7255 1.89225 11.8539C1.82119 11.9824 1.77639 12.1237 1.76045 12.2697C1.74451 12.4156 1.75776 12.5633 1.79942 12.7041C2.7397 15.883 5.19534 18.766 8.5367 20.6143C10.7148 21.8451 13.1682 22.5065 15.6698 22.5371C16.3341 22.5359 16.9972 22.4798 17.6523 22.3695L18.1988 24.8356C19.2131 29.4127 19.2131 31.142 18.1988 35.7191L17.4385 39.1501C17.4345 39.1681 17.4328 39.1862 17.4297 39.2043C17.4262 39.2249 17.4219 39.2454 17.4196 39.2662C17.4173 39.287 17.4169 39.3074 17.4157 39.3281C17.4146 39.3487 17.4127 39.3691 17.4127 39.3898C17.4127 39.4105 17.4146 39.431 17.4157 39.4515C17.4169 39.4721 17.4173 39.4928 17.4196 39.5134C17.4219 39.5341 17.4262 39.5547 17.4297 39.5754C17.4328 39.5934 17.4346 39.6115 17.4385 39.6295L18.1988 43.0605C19.2132 47.6376 19.2132 49.3668 18.1988 53.9439L17.5155 57.0275C11.7634 61.0867 8.60303 66.4612 8.60303 72.2156C8.60303 78.2212 12.0277 83.7931 18.246 87.9047C18.6857 88.1899 19.004 88.6283 19.139 89.1348C19.274 89.6413 19.2161 90.1798 18.9767 90.6461L16.9476 94.5489C16.8599 94.7177 16.8171 94.9063 16.8234 95.0964C16.8297 95.2866 16.8849 95.4719 16.9836 95.6345C17.0823 95.7971 17.2213 95.9315 17.3871 96.0248C17.5529 96.1181 17.74 96.1672 17.9302 96.1672H58.512C58.7023 96.1672 58.8893 96.1181 59.0551 96.0248C59.2209 95.9315 59.3599 95.7971 59.4586 95.6345C59.5574 95.4719 59.6126 95.2866 59.6189 95.0964C59.6252 94.9063 59.5824 94.7177 59.4946 94.5489L57.4657 90.6461C57.2262 90.1799 57.1684 89.6413 57.3034 89.1348C57.4384 88.6283 57.7566 88.1899 58.1964 87.9047C64.4147 83.7929 67.8392 78.221 67.8392 72.2154C67.8392 66.3904 64.5999 60.9552 58.713 56.8791L58.0625 53.9437C57.048 49.3666 57.048 47.6374 58.0625 43.0603L58.5358 40.9246C59.1298 41.0144 59.7296 41.0599 60.3304 41.0608C62.8319 41.0299 65.2852 40.3686 67.4632 39.138C70.8047 37.2896 73.2604 34.4064 74.2007 31.2276C74.2423 31.0868 74.2555 30.9392 74.2395 30.7932C74.2235 30.6473 74.1787 30.506 74.1077 30.3775ZM45.8019 24.3564L45.3402 22.2724H56.362L55.9002 24.3564C54.821 29.226 54.821 31.3287 55.9002 36.1984L56.362 38.2824H45.34L45.8018 36.1984C46.8809 31.3287 46.881 29.226 45.8019 24.3564ZM45.8019 42.5812L45.3402 40.4972H56.362L55.9002 42.5812C54.821 47.4506 54.821 49.5535 55.9002 54.423L56.362 56.507H45.34L45.8018 54.423C46.8809 49.5535 46.881 47.4506 45.8019 42.5812ZM20.3614 42.5812L19.8996 40.4972H30.9214L30.4597 42.5812C29.3805 47.4506 29.3805 49.5535 30.4597 54.423L30.9214 56.507H19.8995L20.3613 54.423C21.4404 49.5535 21.4405 47.4506 20.3614 42.5812ZM20.3614 24.3564L19.8996 22.2724H30.9214L30.4597 24.3564C29.3805 29.226 29.3805 31.3287 30.4597 36.1984L30.9214 38.2824H19.8995L20.3613 36.1984C21.4404 31.3287 21.4405 29.226 20.3614 24.3564ZM20.3614 6.13176L19.8996 4.04777H30.9214L30.4597 6.13176C29.3805 11.0012 29.3805 13.1041 30.4597 17.9736L30.9214 20.0576H19.8995L20.3613 17.9736C21.4404 13.1041 21.4405 11.0012 20.3614 6.13176ZM9.60896 18.6762C7.18685 17.3365 5.32201 15.3865 4.34502 13.2107C6.70683 12.8809 9.35005 13.4253 11.7723 14.7651C14.1944 16.1047 16.0593 18.0549 17.0362 20.2308C14.6737 20.5597 12.0309 20.016 9.60896 18.6762ZM65.6244 72.2155C65.6244 77.4532 62.5525 82.3689 56.9748 86.0572C56.0776 86.6436 55.4301 87.5421 55.1577 88.5787C54.8854 89.6153 55.0075 90.7162 55.5005 91.6678L56.6882 93.9524H19.7542L20.9419 91.6678C21.4349 90.7162 21.5571 89.6154 21.2847 88.5788C21.0123 87.5422 20.3648 86.6436 19.4676 86.0573C13.8898 82.369 10.8179 77.4533 10.8179 72.2156C10.8179 67.1505 13.7045 62.3694 18.9555 58.7219H57.4868C62.7378 62.3694 65.6244 67.1504 65.6244 72.2155ZM66.3911 37.2C63.9689 38.5397 61.3262 39.084 58.9639 38.7544C59.9407 36.5785 61.8056 34.6285 64.2278 33.2887C66.6501 31.9489 69.2926 31.4048 71.6551 31.7343C70.6782 33.9101 68.8133 35.8601 66.3911 37.2Z"/>
        </mask>
        <path d="M74.1077 30.3775C74.0366 30.249 73.9407 30.136 73.8256 30.0449C73.7104 29.9538 73.5783 29.8866 73.4369 29.8471C70.2445 28.9541 66.4971 29.5021 63.1556 31.3508C61.1479 32.4428 59.4152 33.9777 58.0891 35.8391L58.0625 35.7192C57.0481 31.142 57.0481 29.4128 58.0625 24.8357L58.8228 21.4046C58.8587 21.2428 58.8577 21.0749 58.8201 20.9135C58.7824 20.752 58.709 20.6011 58.6052 20.4718C58.5015 20.3425 58.37 20.2382 58.2205 20.1665C58.071 20.0948 57.9074 20.0576 57.7416 20.0576H43.9603C43.7945 20.0576 43.6309 20.0948 43.4814 20.1665C43.3319 20.2382 43.2004 20.3425 43.0967 20.4718C42.9929 20.6011 42.9195 20.752 42.8818 20.9135C42.8442 21.0749 42.8432 21.2428 42.8791 21.4046L43.6394 24.8357C44.6536 29.4128 44.6536 31.142 43.6394 35.7192L42.8791 39.1502C42.8751 39.1681 42.8734 39.1862 42.8703 39.2043C42.8668 39.2249 42.8625 39.2454 42.8602 39.2662C42.8579 39.2871 42.8575 39.3075 42.8563 39.3281C42.8552 39.3488 42.8533 39.3692 42.8533 39.3899C42.8533 39.4105 42.8552 39.431 42.8563 39.4516C42.8575 39.4721 42.8579 39.4928 42.8602 39.5135C42.8625 39.5341 42.8668 39.5548 42.8703 39.5754C42.8734 39.5934 42.8752 39.6115 42.8791 39.6296L43.6394 43.0606C44.6538 47.6377 44.6538 49.3668 43.6394 53.944L43.0714 56.5071H33.19L32.622 53.944C31.6075 49.3668 31.6075 47.6377 32.622 43.0606L33.3823 39.6296C33.3862 39.6116 33.388 39.5935 33.391 39.5754C33.3946 39.5548 33.3988 39.5343 33.4012 39.5135C33.4035 39.4927 33.4039 39.4722 33.405 39.4516C33.4062 39.4309 33.4081 39.4105 33.4081 39.3899C33.4081 39.3692 33.4062 39.3487 33.405 39.3281C33.4039 39.3075 33.4035 39.2869 33.4012 39.2662C33.3988 39.2456 33.3946 39.2249 33.391 39.2043C33.388 39.1863 33.3861 39.1682 33.3823 39.1502L32.622 35.7192C31.6076 31.142 31.6076 29.4128 32.622 24.8357L33.3823 21.4046C33.3862 21.3867 33.388 21.3686 33.391 21.3505C33.3946 21.3299 33.3988 21.3094 33.4012 21.2886C33.4035 21.2678 33.4039 21.2473 33.405 21.2267C33.4062 21.206 33.4081 21.1856 33.4081 21.165C33.4081 21.1443 33.4062 21.1238 33.405 21.1032C33.4039 21.0827 33.4035 21.062 33.4012 21.0413C33.3988 21.0207 33.3946 21 33.391 20.9794C33.388 20.9614 33.3861 20.9433 33.3823 20.9253L32.622 17.4943C31.6075 12.9171 31.6075 11.188 32.622 6.61086L33.3823 3.17984C33.4181 3.01799 33.4172 2.85015 33.3795 2.6887C33.3419 2.52725 33.2685 2.37631 33.1647 2.24703C33.0609 2.11775 32.9294 2.01341 32.78 1.94172C32.6305 1.87003 32.4668 1.83282 32.301 1.83282H18.5198C18.354 1.83282 18.1903 1.87004 18.0408 1.94173C17.8914 2.01342 17.7599 2.11776 17.6561 2.24704C17.5524 2.37632 17.4789 2.52726 17.4413 2.6887C17.4036 2.85015 17.4027 3.01799 17.4386 3.17984L18.1988 6.61086C19.2132 11.188 19.2132 12.9171 18.1988 17.4943L18.1564 17.6859C16.8089 15.6569 14.9851 13.9887 12.8443 12.827C9.50294 10.9784 5.7554 10.4306 2.56305 11.3235C2.42165 11.363 2.28953 11.4303 2.17437 11.5213C2.05921 11.6124 1.96331 11.7255 1.89225 11.8539C1.82119 11.9824 1.77639 12.1237 1.76045 12.2697C1.74451 12.4156 1.75776 12.5633 1.79942 12.7041C2.7397 15.883 5.19534 18.766 8.5367 20.6143C10.7148 21.8451 13.1682 22.5065 15.6698 22.5371C16.3341 22.5359 16.9972 22.4798 17.6523 22.3695L18.1988 24.8356C19.2131 29.4127 19.2131 31.142 18.1988 35.7191L17.4385 39.1501C17.4345 39.1681 17.4328 39.1862 17.4297 39.2043C17.4262 39.2249 17.4219 39.2454 17.4196 39.2662C17.4173 39.287 17.4169 39.3074 17.4157 39.3281C17.4146 39.3487 17.4127 39.3691 17.4127 39.3898C17.4127 39.4105 17.4146 39.431 17.4157 39.4515C17.4169 39.4721 17.4173 39.4928 17.4196 39.5134C17.4219 39.5341 17.4262 39.5547 17.4297 39.5754C17.4328 39.5934 17.4346 39.6115 17.4385 39.6295L18.1988 43.0605C19.2132 47.6376 19.2132 49.3668 18.1988 53.9439L17.5155 57.0275C11.7634 61.0867 8.60303 66.4612 8.60303 72.2156C8.60303 78.2212 12.0277 83.7931 18.246 87.9047C18.6857 88.1899 19.004 88.6283 19.139 89.1348C19.274 89.6413 19.2161 90.1798 18.9767 90.6461L16.9476 94.5489C16.8599 94.7177 16.8171 94.9063 16.8234 95.0964C16.8297 95.2866 16.8849 95.4719 16.9836 95.6345C17.0823 95.7971 17.2213 95.9315 17.3871 96.0248C17.5529 96.1181 17.74 96.1672 17.9302 96.1672H58.512C58.7023 96.1672 58.8893 96.1181 59.0551 96.0248C59.2209 95.9315 59.3599 95.7971 59.4586 95.6345C59.5574 95.4719 59.6126 95.2866 59.6189 95.0964C59.6252 94.9063 59.5824 94.7177 59.4946 94.5489L57.4657 90.6461C57.2262 90.1799 57.1684 89.6413 57.3034 89.1348C57.4384 88.6283 57.7566 88.1899 58.1964 87.9047C64.4147 83.7929 67.8392 78.221 67.8392 72.2154C67.8392 66.3904 64.5999 60.9552 58.713 56.8791L58.0625 53.9437C57.048 49.3666 57.048 47.6374 58.0625 43.0603L58.5358 40.9246C59.1298 41.0144 59.7296 41.0599 60.3304 41.0608C62.8319 41.0299 65.2852 40.3686 67.4632 39.138C70.8047 37.2896 73.2604 34.4064 74.2007 31.2276C74.2423 31.0868 74.2555 30.9392 74.2395 30.7932C74.2235 30.6473 74.1787 30.506 74.1077 30.3775ZM45.8019 24.3564L45.3402 22.2724H56.362L55.9002 24.3564C54.821 29.226 54.821 31.3287 55.9002 36.1984L56.362 38.2824H45.34L45.8018 36.1984C46.8809 31.3287 46.881 29.226 45.8019 24.3564ZM45.8019 42.5812L45.3402 40.4972H56.362L55.9002 42.5812C54.821 47.4506 54.821 49.5535 55.9002 54.423L56.362 56.507H45.34L45.8018 54.423C46.8809 49.5535 46.881 47.4506 45.8019 42.5812ZM20.3614 42.5812L19.8996 40.4972H30.9214L30.4597 42.5812C29.3805 47.4506 29.3805 49.5535 30.4597 54.423L30.9214 56.507H19.8995L20.3613 54.423C21.4404 49.5535 21.4405 47.4506 20.3614 42.5812ZM20.3614 24.3564L19.8996 22.2724H30.9214L30.4597 24.3564C29.3805 29.226 29.3805 31.3287 30.4597 36.1984L30.9214 38.2824H19.8995L20.3613 36.1984C21.4404 31.3287 21.4405 29.226 20.3614 24.3564ZM20.3614 6.13176L19.8996 4.04777H30.9214L30.4597 6.13176C29.3805 11.0012 29.3805 13.1041 30.4597 17.9736L30.9214 20.0576H19.8995L20.3613 17.9736C21.4404 13.1041 21.4405 11.0012 20.3614 6.13176ZM9.60896 18.6762C7.18685 17.3365 5.32201 15.3865 4.34502 13.2107C6.70683 12.8809 9.35005 13.4253 11.7723 14.7651C14.1944 16.1047 16.0593 18.0549 17.0362 20.2308C14.6737 20.5597 12.0309 20.016 9.60896 18.6762ZM65.6244 72.2155C65.6244 77.4532 62.5525 82.3689 56.9748 86.0572C56.0776 86.6436 55.4301 87.5421 55.1577 88.5787C54.8854 89.6153 55.0075 90.7162 55.5005 91.6678L56.6882 93.9524H19.7542L20.9419 91.6678C21.4349 90.7162 21.5571 89.6154 21.2847 88.5788C21.0123 87.5422 20.3648 86.6436 19.4676 86.0573C13.8898 82.369 10.8179 77.4533 10.8179 72.2156C10.8179 67.1505 13.7045 62.3694 18.9555 58.7219H57.4868C62.7378 62.3694 65.6244 67.1504 65.6244 72.2155ZM66.3911 37.2C63.9689 38.5397 61.3262 39.084 58.9639 38.7544C59.9407 36.5785 61.8056 34.6285 64.2278 33.2887C66.6501 31.9489 69.2926 31.4048 71.6551 31.7343C70.6782 33.9101 68.8133 35.8601 66.3911 37.2Z" fill="#285A43"/>
        <path d="M74.1077 30.3775C74.0366 30.249 73.9407 30.136 73.8256 30.0449C73.7104 29.9538 73.5783 29.8866 73.4369 29.8471C70.2445 28.9541 66.4971 29.5021 63.1556 31.3508C61.1479 32.4428 59.4152 33.9777 58.0891 35.8391L58.0625 35.7192C57.0481 31.142 57.0481 29.4128 58.0625 24.8357L58.8228 21.4046C58.8587 21.2428 58.8577 21.0749 58.8201 20.9135C58.7824 20.752 58.709 20.6011 58.6052 20.4718C58.5015 20.3425 58.37 20.2382 58.2205 20.1665C58.071 20.0948 57.9074 20.0576 57.7416 20.0576H43.9603C43.7945 20.0576 43.6309 20.0948 43.4814 20.1665C43.3319 20.2382 43.2004 20.3425 43.0967 20.4718C42.9929 20.6011 42.9195 20.752 42.8818 20.9135C42.8442 21.0749 42.8432 21.2428 42.8791 21.4046L43.6394 24.8357C44.6536 29.4128 44.6536 31.142 43.6394 35.7192L42.8791 39.1502C42.8751 39.1681 42.8734 39.1862 42.8703 39.2043C42.8668 39.2249 42.8625 39.2454 42.8602 39.2662C42.8579 39.2871 42.8575 39.3075 42.8563 39.3281C42.8552 39.3488 42.8533 39.3692 42.8533 39.3899C42.8533 39.4105 42.8552 39.431 42.8563 39.4516C42.8575 39.4721 42.8579 39.4928 42.8602 39.5135C42.8625 39.5341 42.8668 39.5548 42.8703 39.5754C42.8734 39.5934 42.8752 39.6115 42.8791 39.6296L43.6394 43.0606C44.6538 47.6377 44.6538 49.3668 43.6394 53.944L43.0714 56.5071H33.19L32.622 53.944C31.6075 49.3668 31.6075 47.6377 32.622 43.0606L33.3823 39.6296C33.3862 39.6116 33.388 39.5935 33.391 39.5754C33.3946 39.5548 33.3988 39.5343 33.4012 39.5135C33.4035 39.4927 33.4039 39.4722 33.405 39.4516C33.4062 39.4309 33.4081 39.4105 33.4081 39.3899C33.4081 39.3692 33.4062 39.3487 33.405 39.3281C33.4039 39.3075 33.4035 39.2869 33.4012 39.2662C33.3988 39.2456 33.3946 39.2249 33.391 39.2043C33.388 39.1863 33.3861 39.1682 33.3823 39.1502L32.622 35.7192C31.6076 31.142 31.6076 29.4128 32.622 24.8357L33.3823 21.4046C33.3862 21.3867 33.388 21.3686 33.391 21.3505C33.3946 21.3299 33.3988 21.3094 33.4012 21.2886C33.4035 21.2678 33.4039 21.2473 33.405 21.2267C33.4062 21.206 33.4081 21.1856 33.4081 21.165C33.4081 21.1443 33.4062 21.1238 33.405 21.1032C33.4039 21.0827 33.4035 21.062 33.4012 21.0413C33.3988 21.0207 33.3946 21 33.391 20.9794C33.388 20.9614 33.3861 20.9433 33.3823 20.9253L32.622 17.4943C31.6075 12.9171 31.6075 11.188 32.622 6.61086L33.3823 3.17984C33.4181 3.01799 33.4172 2.85015 33.3795 2.6887C33.3419 2.52725 33.2685 2.37631 33.1647 2.24703C33.0609 2.11775 32.9294 2.01341 32.78 1.94172C32.6305 1.87003 32.4668 1.83282 32.301 1.83282H18.5198C18.354 1.83282 18.1903 1.87004 18.0408 1.94173C17.8914 2.01342 17.7599 2.11776 17.6561 2.24704C17.5524 2.37632 17.4789 2.52726 17.4413 2.6887C17.4036 2.85015 17.4027 3.01799 17.4386 3.17984L18.1988 6.61086C19.2132 11.188 19.2132 12.9171 18.1988 17.4943L18.1564 17.6859C16.8089 15.6569 14.9851 13.9887 12.8443 12.827C9.50294 10.9784 5.7554 10.4306 2.56305 11.3235C2.42165 11.363 2.28953 11.4303 2.17437 11.5213C2.05921 11.6124 1.96331 11.7255 1.89225 11.8539C1.82119 11.9824 1.77639 12.1237 1.76045 12.2697C1.74451 12.4156 1.75776 12.5633 1.79942 12.7041C2.7397 15.883 5.19534 18.766 8.5367 20.6143C10.7148 21.8451 13.1682 22.5065 15.6698 22.5371C16.3341 22.5359 16.9972 22.4798 17.6523 22.3695L18.1988 24.8356C19.2131 29.4127 19.2131 31.142 18.1988 35.7191L17.4385 39.1501C17.4345 39.1681 17.4328 39.1862 17.4297 39.2043C17.4262 39.2249 17.4219 39.2454 17.4196 39.2662C17.4173 39.287 17.4169 39.3074 17.4157 39.3281C17.4146 39.3487 17.4127 39.3691 17.4127 39.3898C17.4127 39.4105 17.4146 39.431 17.4157 39.4515C17.4169 39.4721 17.4173 39.4928 17.4196 39.5134C17.4219 39.5341 17.4262 39.5547 17.4297 39.5754C17.4328 39.5934 17.4346 39.6115 17.4385 39.6295L18.1988 43.0605C19.2132 47.6376 19.2132 49.3668 18.1988 53.9439L17.5155 57.0275C11.7634 61.0867 8.60303 66.4612 8.60303 72.2156C8.60303 78.2212 12.0277 83.7931 18.246 87.9047C18.6857 88.1899 19.004 88.6283 19.139 89.1348C19.274 89.6413 19.2161 90.1798 18.9767 90.6461L16.9476 94.5489C16.8599 94.7177 16.8171 94.9063 16.8234 95.0964C16.8297 95.2866 16.8849 95.4719 16.9836 95.6345C17.0823 95.7971 17.2213 95.9315 17.3871 96.0248C17.5529 96.1181 17.74 96.1672 17.9302 96.1672H58.512C58.7023 96.1672 58.8893 96.1181 59.0551 96.0248C59.2209 95.9315 59.3599 95.7971 59.4586 95.6345C59.5574 95.4719 59.6126 95.2866 59.6189 95.0964C59.6252 94.9063 59.5824 94.7177 59.4946 94.5489L57.4657 90.6461C57.2262 90.1799 57.1684 89.6413 57.3034 89.1348C57.4384 88.6283 57.7566 88.1899 58.1964 87.9047C64.4147 83.7929 67.8392 78.221 67.8392 72.2154C67.8392 66.3904 64.5999 60.9552 58.713 56.8791L58.0625 53.9437C57.048 49.3666 57.048 47.6374 58.0625 43.0603L58.5358 40.9246C59.1298 41.0144 59.7296 41.0599 60.3304 41.0608C62.8319 41.0299 65.2852 40.3686 67.4632 39.138C70.8047 37.2896 73.2604 34.4064 74.2007 31.2276C74.2423 31.0868 74.2555 30.9392 74.2395 30.7932C74.2235 30.6473 74.1787 30.506 74.1077 30.3775ZM45.8019 24.3564L45.3402 22.2724H56.362L55.9002 24.3564C54.821 29.226 54.821 31.3287 55.9002 36.1984L56.362 38.2824H45.34L45.8018 36.1984C46.8809 31.3287 46.881 29.226 45.8019 24.3564ZM45.8019 42.5812L45.3402 40.4972H56.362L55.9002 42.5812C54.821 47.4506 54.821 49.5535 55.9002 54.423L56.362 56.507H45.34L45.8018 54.423C46.8809 49.5535 46.881 47.4506 45.8019 42.5812ZM20.3614 42.5812L19.8996 40.4972H30.9214L30.4597 42.5812C29.3805 47.4506 29.3805 49.5535 30.4597 54.423L30.9214 56.507H19.8995L20.3613 54.423C21.4404 49.5535 21.4405 47.4506 20.3614 42.5812ZM20.3614 24.3564L19.8996 22.2724H30.9214L30.4597 24.3564C29.3805 29.226 29.3805 31.3287 30.4597 36.1984L30.9214 38.2824H19.8995L20.3613 36.1984C21.4404 31.3287 21.4405 29.226 20.3614 24.3564ZM20.3614 6.13176L19.8996 4.04777H30.9214L30.4597 6.13176C29.3805 11.0012 29.3805 13.1041 30.4597 17.9736L30.9214 20.0576H19.8995L20.3613 17.9736C21.4404 13.1041 21.4405 11.0012 20.3614 6.13176ZM9.60896 18.6762C7.18685 17.3365 5.32201 15.3865 4.34502 13.2107C6.70683 12.8809 9.35005 13.4253 11.7723 14.7651C14.1944 16.1047 16.0593 18.0549 17.0362 20.2308C14.6737 20.5597 12.0309 20.016 9.60896 18.6762ZM65.6244 72.2155C65.6244 77.4532 62.5525 82.3689 56.9748 86.0572C56.0776 86.6436 55.4301 87.5421 55.1577 88.5787C54.8854 89.6153 55.0075 90.7162 55.5005 91.6678L56.6882 93.9524H19.7542L20.9419 91.6678C21.4349 90.7162 21.5571 89.6154 21.2847 88.5788C21.0123 87.5422 20.3648 86.6436 19.4676 86.0573C13.8898 82.369 10.8179 77.4533 10.8179 72.2156C10.8179 67.1505 13.7045 62.3694 18.9555 58.7219H57.4868C62.7378 62.3694 65.6244 67.1504 65.6244 72.2155ZM66.3911 37.2C63.9689 38.5397 61.3262 39.084 58.9639 38.7544C59.9407 36.5785 61.8056 34.6285 64.2278 33.2887C66.6501 31.9489 69.2926 31.4048 71.6551 31.7343C70.6782 33.9101 68.8133 35.8601 66.3911 37.2Z" stroke="#285A43" stroke-width="2" mask="url(#path-1-outside-1_301_1621)"/>
        <path d="M51.4607 87.0032H24.9816C24.5553 87.0032 24.1465 87.1726 23.845 87.474C23.5436 87.7755 23.3742 88.1843 23.3742 88.6107C23.3742 89.037 23.5436 89.4458 23.845 89.7473C24.1465 90.0487 24.5553 90.2181 24.9816 90.2181H51.4607C51.8871 90.2181 52.2959 90.0487 52.5974 89.7473C52.8988 89.4458 53.0682 89.037 53.0682 88.6107C53.0682 88.1843 52.8988 87.7755 52.5974 87.474C52.2959 87.1726 51.8871 87.0032 51.4607 87.0032Z" fill="#285A43" stroke="#285A43"/>
        </g>
    </symbol>
    <symbol id="svg-circle" viewBox="0 0 24 24">
        <path d="M3 10C3 6.13401 6.13401 3 10 3V10H3Z" stroke="#000000" stroke-width="2" stroke-linecap="round" stroke-linejoin="round"/>
        <path d="M13.5 21C9.35786 21 6 17.6421 6 13.5H13.5V6C17.6421 6 21 9.35786 21 13.5C21 17.6421 17.6421 21 13.5 21Z" stroke="#000000" stroke-width="2" stroke-linecap="round" stroke-linejoin="round"/>
    </symbol>

</svg>
